<svg t="1725363470992" class="icon" viewBox="0 0 1024 1024" version="1.1" xmlns="http://www.w3.org/2000/svg" p-id="834" width="200" height="200"><path d="M410.87 667.67v-55.34h10.084l7.05 23.956 7.352-23.956h10.084v55.34h-6.596v-26.154c0-2.5 0.076-5.306 0.152-8.566 0.076-3.184 0.152-6.444 0.302-9.704 0.152-3.26 0.304-6.216 0.532-8.87l-8.946 28.58h-5.914l-8.566-27.898c0.304 2.502 0.532 5.156 0.682 7.96 0.152 2.806 0.228 5.762 0.304 8.87 0.076 3.108 0.076 6.292 0.076 9.628v26.154h-6.596zM468.336 667.67v-55.34h31.84v6.216H475.08v17.132h22.44v6.066h-22.44v19.71h25.092v6.216h-31.84zM523.676 667.67v-55.34h31.84v6.216H530.42v17.132h22.44v6.066h-22.44v19.71h25.092v6.216h-31.84zM575.224 667.67l14.404-55.34h9.174l14.328 55.34h-6.9l-3.64-14.706h-16.752l-3.64 14.706h-6.974z m11.98-20.468h13.948l-4.246-17.058a179.4 179.4 0 0 1-1.896-8.11c-0.454-2.2-0.758-3.564-0.834-4.246-0.074 0.682-0.38 2.046-0.834 4.246a157.82 157.82 0 0 1-1.894 8.036L587.2 647.2z" p-id="835"></path><path d="M512 64c247.256 0 448 200.74 448 448 0 247.256-200.744 448-448 448S64 759.254 64 512C64 264.74 264.744 64 512 64z m0 31.998c-229.6 0-416 186.406-416 416s186.4 416 416 416c229.594 0 416-186.406 416-416S741.594 96 512 96z" p-id="836"></path><path d="M511.998 128C723.932 128 896 300.064 896 512s-172.068 383.998-384.002 383.998S128 723.932 128 511.996C128 300.066 300.064 128 512 128z m0 160c-123.63 0-224 100.368-224 223.998s100.37 224 224 224 224-100.37 224-224-100.37-224-224-224z" p-id="837"></path><path d="M250.964 481.974c1.33-9.706-0.102-17.72-4.312-23.932-1.67 3.796-4.12 6.566-7.346 8.308-3.116 1.76-6.882 2.392-11.172 1.806l1.22-8.918a10.878 10.878 0 0 0 6.102-0.888c1.96-0.882 3.332-3.34 4.114-7.372-3.996-2.732-9.114-4.812-15.374-6.13l-2.21 16.14c2.236 2.148 3.846 4.668 4.928 7.69 1.08 3.022 1.31 6.388 0.8 10.114l-8.804-1.206c0.416-3.048-0.228-5.896-1.822-8.528-1.594-2.634-4.036-4.118-7.31-4.566l-2.144-0.292c0.054 3.8-0.148 7.798-0.688 11.748l-8.918-1.22c1.22-8.918 0.5-16.26-2.03-22.126-1.464 3.134-3.528 5.612-6.16 7.206-2.65 1.708-5.724 2.32-9.448 1.812l1.22-8.918c4.178 0.572 6.77-2.408 7.876-8.81-3.092-2.608-6.76-4.376-11.116-5.316l-2.472 18.06c0.616 0.544 1.216 1.2 1.702 1.84 2.712 3.708 3.69 8.326 2.934 13.856l-8.804-1.204c0.566-2.452 0.084-4.82-1.316-7.194-0.974-1.284-2.348-2.162-3.994-2.732-1.648-0.57-3.326-0.916-5.244-1.18l-0.226-0.03 1.22-8.916 0.226 0.03a60.32 60.32 0 0 1 5.048 0.922l3.246-23.702 4.514 0.618c6.548 0.896 12.892 3.26 18.924 7.074 6.018 3.928 10.098 10.236 12.228 19.038l4.628 0.632c0.564 0.078 1.34 0.3 2.564 0.58l2.968-21.67 4.4 0.604c9.256 1.266 17.04 4.056 23.25 8.24 6.212 4.186 10.74 9.75 13.5 16.452 2.634 6.8 3.406 14.61 2.216 23.3l-8.918-1.22z m-2.646 29.42l-10.708-1.58c-2.006-1.31-4.104-1.942-6.49-2.154l-38.714-5.3 1.008-6.532 38.716 5.3c4.288 0.588 7.582 1.728 9.896 3.31a22.924 22.924 0 0 1 5.528 5.816l0.764 1.14z m-70.612-10.012l1.22-8.916-9.706-1.33-1.22 8.918-8.918-1.22 1.592-11.628c0.34-2.482 0.136-4.35-0.5-5.586-0.636-1.238-1.46-1.926-2.364-2.05l1.22-8.916c2.372 0.324 4.634 1.44 6.674 3.328 2.14 2.018 3.38 4.718 3.946 8.13l10.498 1.436 1.206-8.804 8.802 1.206-1.204 8.804 68.512 9.38-1.22 8.916-68.512-9.38-1.22 8.918-8.806-1.206z m17.25-17.646l0.896-6.546 53.16 7.278-0.894 6.546-53.162-7.28zM307.554 344.95c1.512-2.14 1.79-4.314 1.034-6.8-0.914-2.458-2.94-4.724-6.012-6.892l-47.19-33.304-5.06 7.168 30.066 21.216c6.488 4.44 12.346 9.968 17.456 16.362 5.2 6.46 7.14 14.382 5.75 23.86l-8.748-6.176c-0.38-5.984-2.554-11.004-6.484-15.312a72.292 72.292 0 0 0-13.07-11.314l-30.158-21.284-5.648 8.006-7.354-5.19 5.65-8.006-10.892-7.684 5.19-7.354 10.89 7.686 10.182-14.428L307.7 324c4.002 2.824 6.8 5.776 8.328 8.944 1.528 3.17 2.208 6.16 1.906 9.154a17.956 17.956 0 0 1-3.12 7.978l-7.26-5.124z m-80.33 10.1l19.444-27.552 7.352 5.188-9.328 13.218c8.592 6.2 16.08 12.184 22.472 17.95 6.39 5.764 11.126 11.894 14.246 18.14l7.226-10.238c0.328-0.464 0.34-0.876 0.192-1.26-0.082-0.474-0.454-0.738-0.986-0.972-8.108-2.934-15.652-6.864-22.476-11.82l5.124-7.26c7.672 5.136 15.73 8.732 24.02 10.816 1.034 0.312 1.844 0.746 2.404 1.14 1.21 0.854 2.156 2.08 2.748 3.612 0.444 1.15 0.57 2.354 0.444 3.52a7.634 7.634 0 0 1-1.384 3.346l-15.174 21.5-9.216-6.502c-2.19-5.59-6.46-11.392-12.85-17.156-6.39-5.766-13.694-11.616-21.98-17.464l-4.926 6.98-7.352-5.188z m-26.34-18.592l19.442-27.55 7.354 5.188-19.444 27.552-7.354-5.19zM319.314 220.658l25.892-13.67-3.564-6.75 7.96-4.2 3.564 6.748 26.698-14.094 25.368 48.056a14.112 14.112 0 0 1 1.64 7.252c-0.146 2.652-0.908 5.116-2.236 7.234a14.234 14.234 0 0 1-5.592 5.27l-13.7 7.234 4.52 8.564c0.692 1.31 1.834 2.252 3.372 2.728 1.386 0.428 2.86 0.294 4.324-0.35l22.97-12.126 4.15 7.858-23.072 12.18a14.112 14.112 0 0 1-7.252 1.638c-2.652-0.146-5.116-0.906-7.234-2.236-2.272-1.376-3.994-3.174-5.218-5.49l-4.52-8.564-25.892 13.668-32.178-60.95z m53.868 39.324l-9.786-18.54-17.932 9.468 9.786 18.54 17.932-9.468z m-13.988-26.498l-9.84-18.638-17.932 9.468 9.84 18.638 17.932-9.468z m35.75 15.008c1.31-0.69 2.252-1.832 2.728-3.372 0.428-1.386 0.294-2.86-0.452-4.27l-7.126-13.5-18.74 9.892 9.788 18.538 13.8-7.288z m-9.052-29.1l-9.84-18.64-18.74 9.892 9.84 18.64 18.74-9.894zM492.552 248.32l2.506-0.012c3.532-0.018 6.26-1.056 8.414-3.232 2.04-2.176 3.05-4.914 3.032-8.446l-0.164-31.784-31.898 0.164-0.046-9 31.898-0.164-0.008-1.368 2.958-1.154c7.732-2.888 13.634-6.906 17.594-12.166 3.96-5.26 6.44-10.516 7.44-15.76l-57.076 0.294-0.046-9 66.644-0.344 0.024 4.556c0.016 3.19-0.536 6.84-1.768 10.946-1.232 4.108-3.374 8.334-6.314 12.566-3.054 4.23-6.908 8.01-11.676 11.338l22.214-0.114 0.048 9-30.988 0.16 0.164 31.784c0.02 3.986-0.872 7.636-2.566 10.72a18.694 18.694 0 0 1-7.252 7.33c-3.068 1.724-6.594 2.654-10.58 2.674l-2.508 0.014-0.046-9zM638.666 291.37c-5.584-2.84-9.074-6.534-10.62-11.282-1.548-4.75-0.9-10.044 1.94-15.628l36.776-72.3 36.86 18.752-14.926 29.344c-1.808 3.554-4.474 6.032-8.1 7.384-3.68 1.452-7.04 1.276-10.392-0.43l-17.06-8.676-15.236 29.954c-1.706 3.352-2.184 6.304-1.386 8.754 0.85 2.35 2.874 4.4 6.224 6.106l-4.08 8.022z m1.848-112.688l23.05 11.726-40.44 79.506c-1.5 2.946-3.754 4.866-6.82 5.864-3.062 0.998-6.016 0.774-8.96-0.724l-12.592-6.406 45.762-89.966z m-29.09 88.35c0.71 0.36 1.32 0.416 2.088 0.168a2.5 2.5 0 0 0 1.588-1.366l10.848-21.324-7.008-3.564-12.086 23.76 4.57 2.326z m18.604-30.544l8.626-16.956-7.008-3.564-8.624 16.956 7.006 3.564z m12.706-24.98l8.728-17.16-7.006-3.564-8.728 17.16 7.006 3.566z m31.5 27.782c1.116 0.568 2.288 0.526 3.616-0.076a6.906 6.906 0 0 0 2.926-2.986l2.014-3.96-21.02-10.692-4.596 9.038 17.06 8.676z m12.584-14.942l4.856-9.546-21.02-10.692-4.856 9.546 21.02 10.692z m-27.614 22.124l8.02 4.08-9.4 18.48c-3.46 6.806-4.464 12.046-3.064 15.826 1.504 3.576 4.236 6.5 8.196 8.514l-4.03 7.92c-5.686-2.892-9.884-7.2-12.544-13.028-2.66-5.826-1.486-13.664 3.472-23.412l9.35-18.38z m0.236 24.66c1.018 0.264 1.988 0.118 2.856-0.336 0.818-0.35 1.536-1.008 1.9-1.974l7.18-14.114 7.92 4.03-7.18 14.114c-1.654 3.25-4.064 5.474-7.332 6.624-3.32 1.25-6.428 1.076-9.372-0.422l4.028-7.92zM723.24 352.36c3.424 1.036 7.704 1.314 12.68 0.806a63.75 63.75 0 0 0 15.076-3.46c5.02-1.806 9.616-4.006 13.534-6.56l0.46-0.334-9.15-12.644 7.29-5.276 9.152 12.642 19.288-13.96 0.066 0.092 0.184-0.134-8.55-11.812 7.292-5.278 3.34 4.616a37.95 37.95 0 0 1 6.596-6.04l5.278 7.288c-0.832 0.6-1.872 1.496-3.122 2.682-1.252 1.186-2.342 2.4-3.276 3.636l5.078 7.014c1.466-0.5 2.96-1.158 4.476-1.974 1.52-0.82 2.692-1.528 3.524-2.128l5.276 7.29c-2.56 1.71-5.16 3.17-7.866 4.288l3.006 4.152-7.29 5.278-8.55-11.814-19.474 14.096 9.22 12.734-7.292 5.278-9.218-12.736c-5.588 4.326-10.65 9.96-15.03 16.928-4.446 6.874-6.924 13.168-7.43 18.88l-8.676 6.278c-0.852-4.868-0.354-10.01 1.544-15.744 1.99-5.8 4.84-11.38 8.74-16.874-6.596 1.962-12.946 2.902-18.986 2.914-6.106-0.08-11.28-1.4-15.586-4.046l8.398-6.08z m-2.212-36.09l1.87 2.584 50.388-36.472-1.87-2.584 7.29-5.278 18.504 25.564-7.292 5.276-1.402-1.938-50.388 36.474 2.138 2.952-7.2 5.21-2.136-2.952-16.98 12.29-5.278-7.29 16.98-12.292-11.822-16.334 7.198-5.21z m11.824 16.334l11.812-8.55-4.676-6.46-11.812 8.55 4.676 6.46z m19.01-13.76l12.274-8.884-4.676-6.46-12.274 8.884 4.676 6.46z m19.564-14.16l11.812-8.552-4.676-6.46-11.812 8.55 4.676 6.46zM857.828 424.054l4.474 30.202-44.288 6.562c-3.268 0.484-6.14-0.242-8.728-2.162s-4.116-4.458-4.6-7.726l-2.754-18.594 55.896-8.28z m-90.836 12.652l0.318 2.14 32.794-4.858 9.866 66.602-32.794 4.86 0.334 2.252-8.902 1.32-10.52-70.998 8.904-1.32z m46.596 12.906c0.118 0.788 0.426 1.32 1.074 1.8 0.646 0.48 1.244 0.62 2.032 0.504l11.946-1.77-1.854-12.51-14.65 2.17 1.452 9.806z m23.954-0.786l14.65-2.17-1.852-12.508-14.65 2.17 1.852 12.508z m-67.428 8.954l24.004-3.556-1.486-10.03-24.004 3.556 1.486 10.03z m1.32 8.902l1.602 10.82 24.004-3.558-1.62-10.93-23.986 3.668z m47.686-3.84a14.232 14.232 0 0 0 5.714 2.034c2 0.28 4.528 0.25 7.458-0.184l30.878-4.576 5.21 35.16-42.036 6.228c-2.48 0.368-4.834 0.026-7.158-0.896a14.78 14.78 0 0 1-5.872-4.66c-1.59-2.18-2.634-4.56-3.02-7.152l-0.466-3.156 8.904-1.32 0.466 3.156c0.252 1.69 0.902 2.976 2.084 3.954 1.18 0.976 2.392 1.372 3.744 1.172l5.972-0.884-2.638-17.806c-5.718 0.27-10.218-0.56-13.61-2.476-3.41-2.028-5.92-4.19-7.576-6.824l11.946-1.77z m20.78 27.556l4.62-0.684-2.586-17.468-4.62 0.684 2.586 17.468z m13.524-2.004l4.846-0.718-2.588-17.466-4.846 0.718 2.588 17.466z m-77.566 8.152l24.004-3.556-1.504-10.142-24.004 3.556 1.504 10.142z" fill="#FFFFFF" p-id="838"></path><path d="M204.712 655.658c-2.278-4.846-3.336-9.51-3.176-13.99 0.208-4.38 1.58-8.422 3.96-11.932 2.48-3.56 5.914-6.43 10.45-8.562l32.376-15.216c4.536-2.134 8.94-2.944 13.26-2.584 4.324 0.36 8.21 1.932 11.714 4.566 3.552 2.736 6.466 6.528 8.744 11.374 2.326 4.948 3.386 9.612 3.176 13.99-0.16 4.48-1.476 8.372-3.96 11.93-2.48 3.56-5.914 6.43-10.45 8.564l-32.374 15.216c-4.538 2.132-8.94 2.94-13.262 2.582-4.22-0.408-8.16-1.83-11.714-4.566-3.552-2.736-6.466-6.526-8.744-11.372z m11.136-5.234c1.696 3.608 4.084 6.01 7.114 7.104 3.032 1.092 6.348 0.92 9.752-0.68l32.374-15.218c3.402-1.6 5.654-4.04 6.746-7.072 1.092-3.032 0.768-6.402-0.93-10.012-1.696-3.608-4.082-6.01-7.114-7.104-3.032-1.092-6.348-0.918-9.75 0.68l-32.376 15.218c-3.4 1.6-5.652 4.04-6.746 7.072-1.044 3.134-0.718 6.506 0.93 10.012z m21.342-10.032c-0.92-1.96-1.18-3.85-0.676-5.724 0.552-1.77 1.912-3.164 3.974-4.134 2.06-0.968 3.9-1.076 5.512-0.324 1.714 0.704 3.006 2.112 3.974 4.174 0.97 2.06 1.23 3.954 0.678 5.724-0.45 1.722-1.706 3.068-3.768 4.036-2.062 0.97-4.002 1.126-5.72 0.422-1.714-0.704-3.004-2.112-3.974-4.174zM266.42 745.696c-3.696-3.876-6.176-7.964-7.444-12.264a23.012 23.012 0 0 1-0.022-12.572c1.226-4.16 3.574-7.972 7.2-11.432l25.892-24.684c3.628-3.46 7.546-5.622 11.76-6.65 4.216-1.028 8.4-0.766 12.558 0.62 4.234 1.472 8.2 4.146 11.894 8.02 3.774 3.96 6.256 8.046 7.444 12.264 1.268 4.3 1.25 8.41 0.022 12.572-1.226 4.16-3.574 7.972-7.2 11.432l-25.892 24.684c-3.628 3.46-7.546 5.622-11.76 6.65-4.134 0.948-8.32 0.85-12.556-0.62-4.236-1.472-8.2-4.146-11.896-8.02z m8.904-8.49c2.752 2.884 5.778 4.408 9 4.484 3.22 0.076 6.312-1.14 9.032-3.734l25.89-24.684c2.72-2.594 4.082-5.624 4.16-8.846 0.076-3.22-1.3-6.316-4.052-9.2-2.752-2.886-5.778-4.41-9-4.486-3.22-0.078-6.31 1.14-9.032 3.732l-25.89 24.686c-2.72 2.594-4.082 5.624-4.16 8.846 0.002 3.302 1.38 6.398 4.052 9.2z m17.068-16.274c-1.494-1.566-2.34-3.28-2.454-5.216-0.036-1.854 0.81-3.606 2.46-5.18 1.65-1.572 3.358-2.256 5.126-2.052 1.85 0.124 3.52 1.05 5.092 2.7 1.572 1.648 2.418 3.36 2.454 5.216 0.12 1.774-0.646 3.448-2.294 5.02-1.65 1.574-3.44 2.336-5.292 2.212-1.85-0.124-3.52-1.052-5.092-2.7zM353.72 811.804c-4.734-2.504-8.384-5.594-10.95-9.27a23.012 23.012 0 0 1-4.008-11.916c-0.156-4.334 0.86-8.694 3.204-13.126l16.724-31.62c2.344-4.432 5.376-7.726 9.046-10.038 3.672-2.312 7.722-3.39 12.104-3.392 4.484 0.05 9.092 1.328 13.826 3.832 4.834 2.556 8.484 5.646 10.948 9.27 2.566 3.676 3.854 7.58 4.01 11.914 0.154 4.336-0.862 8.696-3.206 13.126l-16.724 31.622c-2.344 4.432-5.374 7.726-9.046 10.036-3.618 2.212-7.62 3.446-12.104 3.394-4.484-0.052-9.092-1.33-13.824-3.832z m5.752-10.876c3.524 1.864 6.876 2.348 9.956 1.4 3.08-0.95 5.626-3.084 7.382-6.406l16.726-31.622c1.756-3.324 2.088-6.628 1.14-9.708-0.95-3.08-3.238-5.578-6.762-7.442-3.526-1.864-6.878-2.348-9.956-1.4-3.08 0.95-5.626 3.082-7.384 6.406l-16.724 31.62c-1.758 3.324-2.088 6.63-1.14 9.71 1.05 3.132 3.338 5.63 6.76 7.44z m11.024-20.848c-1.912-1.012-3.258-2.366-3.98-4.166-0.624-1.748-0.376-3.68 0.69-5.692 1.064-2.016 2.468-3.206 4.21-3.574 1.794-0.468 3.672-0.12 5.686 0.946 2.014 1.064 3.36 2.42 3.98 4.168 0.676 1.646 0.482 3.476-0.584 5.49-1.064 2.014-2.52 3.306-4.316 3.774-1.794 0.468-3.672 0.12-5.686-0.946zM457.32 846.568c-5.286-0.858-9.732-2.618-13.34-5.28a23.012 23.012 0 0 1-7.61-10.006c-1.534-4.06-1.966-8.514-1.162-13.462l5.728-35.31c0.804-4.948 2.62-9.04 5.36-12.404 2.74-3.364 6.232-5.682 10.384-7.086 4.264-1.386 9.04-1.65 14.324-0.792 5.398 0.876 9.844 2.636 13.34 5.28 3.606 2.664 6.074 5.948 7.608 10.006 1.534 4.058 1.966 8.514 1.164 13.46l-5.73 35.312c-0.802 4.948-2.62 9.04-5.36 12.402-2.72 3.252-6.118 5.702-10.382 7.088-4.264 1.386-9.04 1.65-14.324 0.792z m1.97-12.146c3.936 0.64 7.266 0.026 9.88-1.86 2.614-1.882 4.344-4.718 4.946-8.428l5.73-35.312c0.6-3.71-0.142-6.948-2.026-9.56-1.884-2.616-4.852-4.25-8.788-4.89-3.934-0.638-7.266-0.024-9.88 1.86-2.614 1.884-4.344 4.72-4.946 8.43l-5.728 35.312c-0.602 3.71 0.14 6.946 2.026 9.56 1.996 2.634 4.962 4.268 8.786 4.888z m3.776-23.276c-2.136-0.348-3.844-1.2-5.106-2.676-1.148-1.456-1.53-3.364-1.166-5.614 0.366-2.248 1.314-3.826 2.846-4.732 1.55-1.018 3.44-1.288 5.69-0.924 2.248 0.366 3.956 1.22 5.104 2.676 1.168 1.344 1.568 3.14 1.204 5.388-0.364 2.25-1.332 3.94-2.88 4.958-1.552 1.018-3.442 1.288-5.692 0.924zM566.68 846.568c-5.286 0.858-10.06 0.594-14.324-0.792a23.012 23.012 0 0 1-10.384-7.086c-2.738-3.364-4.556-7.456-5.36-12.404l-5.728-35.31c-0.802-4.948-0.372-9.404 1.164-13.46 1.534-4.06 4.114-7.362 7.608-10.008 3.608-2.66 8.054-4.422 13.34-5.28 5.398-0.876 10.172-0.612 14.324 0.792 4.264 1.386 7.644 3.724 10.384 7.088 2.738 3.364 4.556 7.454 5.36 12.402l5.728 35.31c0.802 4.948 0.372 9.404-1.164 13.462-1.552 3.946-4 7.344-7.608 10.006-3.608 2.662-8.054 4.422-13.34 5.28z m-1.97-12.144c3.936-0.64 6.9-2.274 8.786-4.888 1.884-2.614 2.628-5.852 2.026-9.562l-5.728-35.31c-0.602-3.712-2.332-6.548-4.946-8.432-2.614-1.884-5.946-2.498-9.88-1.86-3.938 0.64-6.904 2.276-8.788 4.89-1.884 2.614-2.628 5.85-2.026 9.56l5.73 35.312c0.6 3.71 2.33 6.546 4.944 8.43 2.728 1.866 6.06 2.48 9.88 1.86z m-3.778-23.28c-2.136 0.348-4.026 0.078-5.688-0.92-1.55-1.02-2.518-2.71-2.882-4.96-0.366-2.248 0.036-4.044 1.202-5.388 1.15-1.456 2.858-2.31 5.106-2.674 2.25-0.366 4.14-0.096 5.69 0.922 1.532 0.906 2.48 2.484 2.846 4.732 0.364 2.25-0.02 4.16-1.168 5.614-1.148 1.456-2.856 2.31-5.106 2.676zM670.282 811.804c-4.732 2.504-9.34 3.78-13.824 3.832-4.384 0-8.488-1.182-12.106-3.392-3.67-2.312-6.7-5.606-9.044-10.038l-16.726-31.62c-2.342-4.432-3.36-8.792-3.204-13.126 0.156-4.336 1.544-8.292 4.008-11.916 2.566-3.676 6.216-6.766 10.95-9.27 4.834-2.556 9.44-3.834 13.824-3.832 4.484-0.052 8.434 1.08 12.104 3.392 3.672 2.312 6.702 5.606 9.046 10.038l16.724 31.62c2.344 4.432 3.36 8.792 3.206 13.126-0.21 4.236-1.442 8.24-4.008 11.916s-6.216 6.766-10.95 9.27z m-5.752-10.876c3.524-1.864 5.812-4.362 6.76-7.442 0.95-3.08 0.62-6.384-1.14-9.708l-16.722-31.62c-1.76-3.324-4.304-5.46-7.384-6.408-3.08-0.948-6.432-0.464-9.956 1.4-3.524 1.864-5.812 4.364-6.76 7.442-0.95 3.08-0.62 6.384 1.14 9.708l16.722 31.622c1.76 3.324 4.304 5.456 7.384 6.406 3.18 0.894 6.532 0.41 9.956-1.4z m-11.026-20.846c-1.912 1.012-3.79 1.36-5.686 0.944-1.794-0.468-3.25-1.76-4.316-3.774-1.064-2.014-1.26-3.844-0.584-5.49 0.622-1.748 1.968-3.102 3.982-4.168 2.014-1.066 3.892-1.414 5.686-0.946 1.74 0.368 3.144 1.56 4.21 3.574 1.064 2.014 1.312 3.944 0.69 5.692-0.622 1.746-1.968 3.102-3.98 4.168zM757.58 745.694c-3.694 3.876-7.66 6.548-11.896 8.02a23.012 23.012 0 0 1-12.554 0.62c-4.216-1.028-8.134-3.19-11.762-6.648L695.478 723c-3.628-3.46-5.976-7.27-7.202-11.432-1.228-4.16-1.166-8.352 0.022-12.57 1.268-4.3 3.748-8.39 7.444-12.264 3.774-3.96 7.74-6.632 11.896-8.02 4.236-1.47 8.34-1.65 12.554-0.62 4.216 1.026 8.134 3.19 11.762 6.648l25.89 24.686c3.628 3.46 5.976 7.27 7.202 11.43 1.146 4.084 1.246 8.27-0.022 12.572-1.268 4.3-3.748 8.388-7.444 12.264z m-8.904-8.49c2.752-2.886 4.128-5.98 4.052-9.202-0.078-3.22-1.44-6.252-4.16-8.846l-25.89-24.684c-2.72-2.594-5.812-3.81-9.034-3.734-3.22 0.078-6.246 1.6-8.998 4.486-2.752 2.886-4.128 5.98-4.052 9.2 0.078 3.222 1.44 6.252 4.16 8.846l25.89 24.686c2.72 2.594 5.812 3.81 9.034 3.732 3.3-0.16 6.324-1.68 8.998-4.484z m-17.068-16.274c-1.494 1.568-3.164 2.494-5.092 2.7-1.85 0.126-3.64-0.638-5.29-2.21s-2.414-3.246-2.296-5.022c0.036-1.854 0.88-3.566 2.454-5.216 1.572-1.648 3.242-2.574 5.092-2.7 1.768-0.202 3.478 0.48 5.126 2.054 1.65 1.572 2.496 3.324 2.46 5.18-0.036 1.854-0.88 3.566-2.454 5.214zM819.286 655.658c-2.278 4.844-5.192 8.636-8.744 11.372a23.012 23.012 0 0 1-11.712 4.566c-4.324 0.36-8.726-0.45-13.262-2.582l-32.376-15.218c-4.536-2.132-7.968-5.004-10.45-8.56-2.482-3.56-3.752-7.556-3.96-11.934-0.16-4.48 0.9-9.144 3.176-13.99 2.326-4.948 5.24-8.74 8.746-11.372 3.552-2.736 7.388-4.206 11.712-4.566 4.322-0.36 8.726 0.45 13.262 2.582l32.374 15.218c4.536 2.132 7.97 5.004 10.452 8.56 2.38 3.512 3.8 7.452 3.96 11.932 0.16 4.48-0.9 9.146-3.178 13.992z m-11.134-5.234c1.696-3.61 2.02-6.98 0.928-10.012s-3.344-5.474-6.746-7.072l-32.374-15.216c-3.402-1.6-6.72-1.774-9.75-0.68-3.032 1.092-5.42 3.494-7.116 7.102-1.696 3.61-2.02 6.98-0.928 10.012s3.342 5.474 6.746 7.072l32.374 15.216c3.402 1.6 6.72 1.774 9.75 0.68 3.08-1.194 5.468-3.596 7.116-7.102z m-21.344-10.032c-0.92 1.96-2.21 3.366-3.974 4.174-1.716 0.704-3.656 0.548-5.72-0.42-2.06-0.97-3.316-2.316-3.766-4.038-0.552-1.77-0.294-3.662 0.676-5.724 0.97-2.062 2.26-3.47 3.976-4.174 1.612-0.752 3.45-0.644 5.512 0.324 2.06 0.97 3.42 2.364 3.974 4.134 0.552 1.77 0.292 3.662-0.678 5.724z" fill="#FFFFFF" p-id="839"></path><path d="M448 320l-64 64 64 64-64 64 64 64 64-64.368L576 576l64-64-64-64 64-64-64-64-64 64 64 64-64 63.632L448 448l64-64-64-64z" p-id="840"></path></svg>
